<svg width="19" height="16" viewBox="0 0 19 16" fill="none" xmlns="http://www.w3.org/2000/svg">
<path d="M19 8C19 8.29837 18.8815 8.58452 18.6705 8.79549C18.4595 9.00647 18.1734 9.125 17.875 9.125H4.69449L9.62499 13.5365C9.73609 13.6347 9.82668 13.7539 9.89154 13.8873C9.9564 14.0206 9.99426 14.1655 10.0029 14.3135C10.0116 14.4615 9.99095 14.6098 9.94211 14.7499C9.89328 14.8899 9.81724 15.0188 9.71838 15.1294C9.61952 15.2399 9.49979 15.3298 9.36606 15.3939C9.23234 15.458 9.08726 15.495 8.93918 15.5028C8.7911 15.5106 8.64294 15.4891 8.50321 15.4394C8.36348 15.3898 8.23494 15.313 8.12499 15.2135L0.999994 8.8385C0.881778 8.73297 0.78719 8.60365 0.722426 8.45902C0.657662 8.3144 0.624184 8.15772 0.624184 7.99925C0.624184 7.84078 0.657662 7.6841 0.722426 7.53947C0.78719 7.39485 0.881778 7.26553 0.999994 7.16L8.12499 0.785C8.23494 0.685499 8.36348 0.608717 8.50321 0.559069C8.64294 0.509421 8.7911 0.487887 8.93918 0.495705C9.08726 0.503524 9.23234 0.54054 9.36606 0.604626C9.49979 0.668712 9.61952 0.758603 9.71838 0.869128C9.81724 0.979653 9.89328 1.10863 9.94211 1.24865C9.99095 1.38866 10.0116 1.53695 10.0029 1.68498C9.99426 1.83302 9.9564 1.97787 9.89154 2.11122C9.82668 2.24457 9.73609 2.36378 9.62499 2.462L4.69449 6.875H17.875C18.1734 6.875 18.4595 6.99353 18.6705 7.2045C18.8815 7.41548 19 7.70163 19 8Z" fill="#F9F9F9"/>
</svg>
