<svg width="8" height="15" viewBox="0 0 8 15" fill="none" xmlns="http://www.w3.org/2000/svg">
<path d="M0.515329 13.042C0.455184 13.1057 0.408164 13.1805 0.376954 13.2623C0.345743 13.3442 0.330954 13.4313 0.33343 13.5189C0.335906 13.6064 0.355599 13.6926 0.391385 13.7725C0.427171 13.8524 0.478348 13.9245 0.541996 13.9847C0.605643 14.0448 0.680514 14.0918 0.762333 14.123C0.844152 14.1543 0.931317 14.169 1.01885 14.1666C1.10639 14.1641 1.19258 14.1444 1.2725 14.1086C1.35242 14.0728 1.42452 14.0217 1.48466 13.958L7.15133 7.95801C7.26835 7.83423 7.33356 7.67035 7.33356 7.50001C7.33356 7.32967 7.26835 7.16579 7.15133 7.04201L1.48466 1.04134C1.42492 0.9763 1.35284 0.923778 1.27262 0.886828C1.1924 0.849879 1.10564 0.829236 1.01738 0.826101C0.929117 0.822965 0.84111 0.837399 0.758473 0.868562C0.675835 0.899726 0.600213 0.946998 0.535999 1.00763C0.471785 1.06827 0.42026 1.14106 0.384416 1.22178C0.348571 1.3025 0.329123 1.38953 0.3272 1.47783C0.325277 1.56613 0.340918 1.65393 0.373214 1.73613C0.40551 1.81833 0.453817 1.8933 0.51533 1.95667L5.75 7.50001L0.515329 13.042Z" fill="#0073BC"/>
</svg>
