<svg width="18" height="19" viewBox="0 0 18 19" fill="none" xmlns="http://www.w3.org/2000/svg">
<g clip-path="url(#clip0)">
<path d="M9.00001 0.49704C10.8149 0.497072 12.5874 1.04579 14.0848 2.07119C15.5823 3.09659 16.7347 4.55075 17.3909 6.24284C18.0472 7.93492 18.1765 9.78587 17.7619 11.5528C17.3474 13.3197 16.4083 14.92 15.068 16.1436C13.7277 17.3673 12.0488 18.1572 10.2515 18.4096C8.4543 18.662 6.62274 18.3651 4.99722 17.558C3.3717 16.7508 2.02819 15.4711 1.14299 13.8868C0.257785 12.3024 -0.127737 10.4874 0.0370134 8.68004C0.0488324 8.54924 0.0862981 8.42205 0.147271 8.30574C0.208244 8.18942 0.29153 8.08625 0.392375 8.00212C0.493219 7.91799 0.609647 7.85455 0.73501 7.81541C0.860373 7.77628 0.992217 7.76222 1.12301 7.77404C1.25381 7.78586 1.381 7.82332 1.49732 7.8843C1.61363 7.94527 1.7168 8.02856 1.80093 8.1294C1.88506 8.23025 1.9485 8.34667 1.98764 8.47204C2.02677 8.5974 2.04083 8.72924 2.02901 8.86004C1.93286 9.88272 2.0642 10.914 2.41361 11.88C2.76302 12.8459 3.32185 13.7225 4.05001 14.447C4.42501 14.822 4.84201 15.154 5.29201 15.435C6.40652 16.1308 7.69435 16.4989 9.00821 16.4971C10.3221 16.4954 11.6089 16.1239 12.7216 15.4252C13.8342 14.7265 14.7278 13.7287 15.3001 12.546C15.8723 11.3633 16.1002 10.0435 15.9576 8.73738C15.815 7.43129 15.3077 6.19169 14.4937 5.16035C13.6797 4.12902 12.5919 3.34759 11.3547 2.90543C10.1174 2.46327 8.78075 2.37824 7.49747 2.66006C6.21419 2.94188 5.03613 3.57916 4.09801 4.49904L5.49801 4.50004C5.75435 4.49829 6.00157 4.59504 6.18862 4.77033C6.37567 4.94561 6.48827 5.18603 6.50316 5.44194C6.51804 5.69785 6.43409 5.94971 6.26862 6.14549C6.10316 6.34128 5.86882 6.46605 5.61401 6.49404L5.49801 6.50004H1.49601C1.25108 6.50001 1.01468 6.41008 0.831641 6.24732C0.648606 6.08457 0.531671 5.86029 0.503013 5.61704L0.496014 5.50004V1.50004C0.494262 1.2437 0.591018 0.996481 0.7663 0.809429C0.941582 0.622378 1.182 0.509783 1.43791 0.494895C1.69382 0.480008 1.94568 0.563965 2.14147 0.72943C2.33726 0.894894 2.46203 1.12923 2.49001 1.38404L2.49601 1.50104V3.27504C3.33574 2.39599 4.34515 1.69653 5.46312 1.21903C6.58108 0.741518 7.78434 0.495897 9.00001 0.49704ZM8.25001 4.49704C8.43125 4.49705 8.60635 4.56268 8.74294 4.68181C8.87953 4.80093 8.96836 4.96549 8.99301 5.14504L9.00001 5.24704V9.49704H11.25C11.44 9.4971 11.623 9.56928 11.7618 9.69901C11.9007 9.82874 11.9851 10.0063 11.998 10.1959C12.011 10.3855 11.9515 10.5729 11.8316 10.7203C11.7117 10.8677 11.5403 10.9641 11.352 10.99L11.25 10.997H8.25001C8.06878 10.997 7.89367 10.9314 7.75708 10.8123C7.62049 10.6931 7.53166 10.5286 7.50701 10.349L7.50001 10.247V5.24704C7.50001 5.04813 7.57903 4.85736 7.71968 4.71671C7.86034 4.57606 8.0511 4.49704 8.25001 4.49704Z" fill="#333333"/>
</g>
<defs>
<clipPath id="clip0">
<rect width="18" height="18.0038" fill="white" transform="translate(-0.000152588 0.493206)"/>
</clipPath>
</defs>
</svg>
